<?xml version="1.0" encoding="UTF-8"?>
<svg xmlns="http://www.w3.org/2000/svg" xmlns:xlink="http://www.w3.org/1999/xlink" width="323.119" height="165.827" viewBox="0 0 323.119 165.827">
  <defs>
    <clipPath id="clip-path">
      <rect id="Rectangle_801" data-name="Rectangle 801" width="325.953" height="52.503" fill="#f4eee4"></rect>
    </clipPath>
  </defs>
  <g id="Group_1050" data-name="Group 1050" transform="matrix(0.934, -0.358, 0.358, 0.934, 0, 140.811)">
    <g id="Group_869" data-name="Group 869" transform="translate(8.601 -22.406)" clip-path="url(#clip-path)">
      <path id="Path_951" data-name="Path 951" d="M18.539,24.416c0-.915-.012-1.76,0-2.6s.026-1.664.1-2.49c.028-.294.395-.6.348-.849-.124-.667.466-1.026.583-1.6.086-.42.747-.7,1.084-1.095.789-.932,1.763-.377,2.656-.342.183.007.292.5.7.417.222-.045.423.038.506-.317.045-.2.387-.322.613-.493l1.9.877c.518.28.391,1,.945,1.349.283.181.32.721.518,1.07.22.387.508.734.747,1.11a8.3,8.3,0,0,1,.632,1.1c.111.254-.047.625.375.741.052.014.026.24.077.347.088.182.24.336.308.523a8.087,8.087,0,0,1,.215.872c.376-.116.706-.291.79-.708s-.111-.916.379-1.246c.11-.074.068-.375.093-.572.053-.422-.029-.834.339-1.231.209-.224.054-.764.116-1.153.145-.917.317-1.83.487-2.743.071-.382-.2-.876.366-1.109.054-.022.015-.239.042-.361.141-.656-.258-1.4.4-2,.172-.158.042-.627.084-.949.029-.222-.079-.545.32-.577a.148.148,0,0,0,.1-.107c.014-.638.461-.954.9-1.314.692-.568,1.225-.636,1.753.06.224.3.106.852.158,1.452L36,10.162c.011-.042.023-.084.033-.126l-.527.377c-.209.574-.415,1.065-.562,1.574a4.215,4.215,0,0,0-.075.86c-.032.446.122.943-.37,1.26-.039.025-.029.136-.034.207-.044.738-.071,1.477-.138,2.213-.021.229-.181.442-.228.673-.081.4-.133.811-.179,1.218-.031.277.053.566-.291.747-.1.055-.12.325-.131.5-.025.433.009.872-.041,1.3a2.2,2.2,0,0,1-.315,1.279c-.286.387-.1,1.112-.158,1.684a2.509,2.509,0,0,1-.187.609c-.049.132-.143.25-.18.385-.153.552-.278,1.112-.442,1.661-.119.4-.376.625-.709.524-.249-.206-.422-.334-.575-.483a.414.414,0,0,1-.088-.237c-.036-.306.046-.653-.378-.794-.063-.021-.043-.268-.076-.406-.072-.3.161-.732-.375-.819-.025,0-.057-.1-.052-.142.086-.774-.437-1.257-.832-1.811-.115-.16-.088-.417-.145-.624s.075-.547-.332-.563c-.033,0-.074-.069-.093-.114-.155-.376-.214-.979-.476-1.086-.591-.242-.142-1.058-.784-1.173-.031-.005-.033-.165-.053-.252a1.97,1.97,0,0,0-.773-1.03,1.045,1.045,0,0,0-1.107-.315c0,.21.01.441,0,.67-.014.262.125.582-.305.694-.076.02-.1.325-.109.5-.022.487-.011.976-.036,1.463-.014.264.191.659-.339.677-.023,0-.067.093-.06.138.141,1.044-.783,1.419-1.264,2.082-.26.358-.729.659-.611,1.251.031.153-.176.354-.277.531-.041.072-.146.158-.129.205.187.525-.363.718-.5,1.1-.079.218-.394.35-.6.521-.142.118-.283.237-.517.433h-.575L18.855,25.74c-.408.137-.966-.247-1.318.41-.069.129-.515.031-.775.091a3.38,3.38,0,0,0-.558.264,1.353,1.353,0,0,1-.434.148c-.379.024-.76,0-1.14.021-.265.013-.581-.1-.718.3-.028.08-.287.1-.443.115a6.041,6.041,0,0,0-1.966.353,6.251,6.251,0,0,1-2.037.133c-.373.026-.741.116-1.236.2a.7.7,0,0,0-.984.09c-.025.024-.066.077-.068.075-.516-.392-1.068.2-1.6-.066a3.009,3.009,0,0,0-.926-.284,3.418,3.418,0,0,0-1.134,0c-.6.132-.826-.467-1.292-.587a1.345,1.345,0,0,1-.482-.361,3.868,3.868,0,0,1-.381-.421c-.268-.332-.539-.661-.786-1.007-.077-.108-.062-.277-.123-.4-.076-.154-.192-.288-.282-.435a.585.585,0,0,1-.118-.264,16.786,16.786,0,0,1,.076-3.458,6.388,6.388,0,0,1,.416-1.909c.306-.493.143-1.125.412-1.375.458-.424.249-.946.48-1.334a6.853,6.853,0,0,0,.935-2.248c.085-.442.491-.812.655-1.251a7.684,7.684,0,0,0,.161-1.118c.077-.374-.173-.815.37-1.122.184-.1.06-.747.083-1.144.014-.239-.064-.518.3-.61.06-.015.1-.212.1-.326.018-.4,0-.8.028-1.193.023-.3-.207-.728.361-.8.032,0,.059-.2.059-.3,0-1.122,0-2.244-.013-3.366a1.1,1.1,0,0,0-.106-.332c-.095-.264-.306-.548-.263-.786a3,3,0,0,1,.509-1.3C4.76-.04,5.238,0,5.561.016c.112.006.253.241.3.4.067.209-.024.477.326.527.056.008.112.238.113.365C6.312,2.5,6.322,3.693,6.3,4.887c0,.222-.173.436-.233.662a5.4,5.4,0,0,0-.174.886,3.013,3.013,0,0,1-.368,1.794c-.217.287-.06.843-.108,1.273-.037.325.148.745-.329.92-.023.009-.034.062-.043.1q-.248.943-.5,1.886a5.516,5.516,0,0,1-.563,1.947c-.358.459-.172,1.022-.426,1.3-.38.409-.28.864-.456,1.267-.191.439-.555.8-.755,1.239a3.539,3.539,0,0,0-.1.907c-.049.328.11.736-.341.928-.047.02-.053.165-.055.253-.03,1.207-.106,2.416-.053,3.62.015.344.384.689.632,1a7.06,7.06,0,0,0,.768.771c.069.063.2.054.285.106.2.124.582-.018.6.4,0,.037.181.075.282.094.272.053.643-.107.718.367.007.044.264.069.405.069q1.98-.007,3.96-.028c.107,0,.287.006.31-.044.229-.523.7-.277,1.068-.367s.721-.225,1.084-.33a2.475,2.475,0,0,1,.372-.051,2.326,2.326,0,0,0,1.445-.385c.285-.241.867-.112,1.306-.2.31-.061.6-.218.909-.3a4.721,4.721,0,0,1,.693-.105c.244-.029.568.11.6-.329,0-.045.208-.1.32-.106.32-.014.641-.005.982-.005m1.41-.862c.394-.058.887.015,1.047-.182.411-.506,1.236-.712,1.21-1.556,0-.046.084-.093.125-.143a1.312,1.312,0,0,0,.272-.355c.12-.367-.173-.888.421-1.081.035-.011.026-.168.033-.258.033-.443-.108-.936.366-1.255.045-.03.034-.137.06-.2.239-.6-.251-.918-.532-1.3a1.453,1.453,0,0,0-.594-.4c-.516-.223-.829.253-1.06.5a6.236,6.236,0,0,0-.855,1.517c-.286.583-.179,1.245-.42,1.885a8.8,8.8,0,0,0-.071,2.828" transform="translate(0 1.013)" fill="#f4eee4"></path>
      <path id="Path_952" data-name="Path 952" d="M35.944,21.523a6.521,6.521,0,0,1,.219.775c.084.507-.059,1.011.35,1.512.238.291.07.907.106,1.375.019.246-.076.575.344.613.042,0,.1.105.107.164a7.18,7.18,0,0,1,.023,1.56c-.059.328-.384.608-.59.91-.243-.2-.584-.356-.7-.613-.129-.278.03-.673-.375-.868-.073-.036-.063-.267-.072-.408-.043-.686-.046-1.375-.129-2.056a4.047,4.047,0,0,0-.363-1.305c-.11-.221-.455-.324-.589-.412-.423.109-.765.2-1.111.284-.24.057-.461,0-.629.349-.128.266-.583.407-.921.53a5.562,5.562,0,0,1-2.459.562c-.737-.07-1.492.011-2.221-.094a5.643,5.643,0,0,1-1.836-.563,4.5,4.5,0,0,1-1.035-1.065,9.437,9.437,0,0,1-.89-1.071,12.525,12.525,0,0,1-.555-1.15c-.112-.218-.335-.4-.385-.625A7.9,7.9,0,0,1,22.18,18.9c-.028-.331.119-.707-.34-.931-.127-.062-.087-.467-.136-.795-.3,0-.624.022-.94-.006-.353-.031-.773.194-1.025-.319-.06-.122-.47-.089-.721-.1a1.6,1.6,0,0,1-1.419-.988c-.156-.336-.509-.575-.7-.9a2.959,2.959,0,0,1-.215-.787c-.279-.259-.525-.51-.8-.73-.138-.111-.359-.267-.474-.223a.67.67,0,0,0-.388.448c-.065.993-.069,1.989-.114,2.983a3.5,3.5,0,0,1-.868,1.875c-.057.077-.278.143-.32.1-.2-.186-.53-.432-.505-.615.081-.6-.474-.779-.666-1.186a8.359,8.359,0,0,0-.807-1.237,2.392,2.392,0,0,0-.411-.394,1.8,1.8,0,0,1-.5-1.066c-.088-.354-.519-.621-.791-.932a3.949,3.949,0,0,1-.45-.573c-.309-.525-.88-.824-1.115-1.446-.122-.325-.609-.514-.936-.76S6.9,9.85,6.632,9.65a5.487,5.487,0,0,0-.868.329c-.28.163-.5.431-.775.6-.486.3-.406.914-.826,1.3-.341.313-.394.942-.569,1.433-.024.066,0,.192-.031.205-.68.283-.3.893-.428,1.341a3.134,3.134,0,0,1-.273.481c-.059.116-.085.249-.143.367-.1.2-.212.4-.321.6-.032.059-.107.124-.1.172.126.627-.318,1.069-.507,1.592-.137.38-.333.483-.86.471-.226-.8.186-1.706-.279-2.415a4.62,4.62,0,0,0,.211-.913c.03-1.266.019-2.532.037-3.8,0-.227-.1-.531.286-.61a.776.776,0,0,0,.009-.366c-.368-.094-.28-.385-.277-.62a13.433,13.433,0,0,1,.07-1.509c.046-.355.33-.727.263-1.04-.127-.594-.418-1.144.027-1.729a.416.416,0,0,0-.086-.4c-.5-.352-.2-.72-.06-1.09.036-.1.121-.246.089-.28C.767,3.3.916,2.667.935,2.142.955,1.581.487,1.361.383.925.37.872.164.865.042.836.028.574.015.341,0,.054.364.064.754-.2.951.342c.017.046.121.08.187.084.57.033.611.447.727.886.67,2.523.312,5.094.4,7.643.031.932-.068,1.869-.113,2.8-.005.105,0,.255-.068.306-.63.506.037.724.262.912.284.238.28-.167.387-.319.246-.349.5-.691.731-1.053.251-.384.486-.781.757-1.15.308-.42.649-.815.923-1.266.244-.2.735-.007.85-.524,0-.01.3-.01.331.05.2.4.568.308.9.364a1.3,1.3,0,0,1,.384.215,1.571,1.571,0,0,0,.334.2,2.107,2.107,0,0,1,1.134.779c.406.53.878,1.008,1.306,1.521.3.355.573.728.844,1.1.059.081.043.212.086.309.078.172.173.336.267.5.035.061.1.107.128.17a11.316,11.316,0,0,0,.545,1.266,5.5,5.5,0,0,0,.854,1.088c.163.163.323.047.549-.133.551-.438.349-.973.382-1.48.034-.541.013-1.085.034-1.628.012-.32-.107-.677.315-.888.1-.051.091-.369.094-.565.011-.832-.005-1.666.021-2.5a1.912,1.912,0,0,1,.217-.559,1.56,1.56,0,0,0,.155-.444c.025-.451.018-.9.022-1.357,0-.072.018-.191-.016-.21-.721-.393-.279-1.085-.415-1.625a2.537,2.537,0,0,1-.01-.647l.716-.484c1.049.63.608,1.709.656,2.62.075,1.4.017,2.816.048,4.225.006.244.195.477.258.726.078.306.091.629.174.933a4.672,4.672,0,0,0,.269.48c.1.233.161.48.264.8a5.358,5.358,0,0,1,.825.872,4.208,4.208,0,0,0,1.84,1.613,5.2,5.2,0,0,0,1.823.32c.317.014.473-.086.45-.428a3.93,3.93,0,0,1,.014-.867,2.758,2.758,0,0,1,.247-.578,1.092,1.092,0,0,0,.1-.343c.028-.542.033-1.085.063-1.627.015-.269-.082-.606.332-.7.033-.007.073-.084.072-.128a1.69,1.69,0,0,1,.377-1.088,12.5,12.5,0,0,0,.66-1.61c.171-.322.609-.506.764-.831.249-.518.669-.433,1.034-.372a1.2,1.2,0,0,1,.723.475,2.942,2.942,0,0,1,.516,1.212,9.186,9.186,0,0,1,.007,2.167,5.878,5.878,0,0,1-.541,2.012c-.263.5-.473,1.132-1.146,1.351a1.12,1.12,0,0,0-.487.5,2.041,2.041,0,0,1-1.216.928c-.135.042-.239.387-.248.6a5.731,5.731,0,0,0,.059,1.567,17.822,17.822,0,0,0,.73,2,1.783,1.783,0,0,1,.141.349,1.841,1.841,0,0,0,.833,1.346,3.314,3.314,0,0,1,.587.713c.022.027.055.072.076.068.482-.076.791.406,1.18.429,1.29.075,2.587.046,3.881.045.082,0,.165-.093.245-.146a1.97,1.97,0,0,1,.392-.258c.215-.076.538.062.571-.338,0-.043.136-.093.215-.108.282-.053.68.128.729-.377,0-.013.024-.029.039-.033a13.1,13.1,0,0,1,1.454-.464c.413-.085.658-.248.68-.681.019-.379.053-.759.052-1.138a1.861,1.861,0,0,1,.3-1.327,1.107,1.107,0,0,0,.117-.511c.058-.382-.141-.831.333-1.106.08-.047.074-.27.079-.413.019-.543.024-1.086.04-1.628.006-.216-.093-.494.282-.519.037,0,.1-.072.1-.105-.062-.736.724-1.257.5-2.044-.066-.237.039-.414.338-.563.236-.117.334-.533.47-.827.206-.447.361-.92.6-1.351a6.406,6.406,0,0,1,.7-.949c.191-.234.409-.447.623-.663a.92.92,0,0,1,.265-.193c.031-.014.157.086.151.1a1.208,1.208,0,0,1-.157.3c-.067.094-.168.164-.231.259-.28.421-.562.843-.821,1.277a1.324,1.324,0,0,0-.128.459c-.044.265.084.6-.34.692-.056.013-.053.226-.106.332-.1.2-.22.385-.333.575-.017.028-.062.042-.072.07-.158.471-.324.94-.466,1.416-.085.285.06.678-.41.767-.045.009-.076.186-.081.287-.021.343,0,.692-.047,1.029-.062.412-.188.814-.279,1.222a3.933,3.933,0,0,0-.134.741c-.028,1.157-.024,2.315-.058,3.472a3.585,3.585,0,0,1-.194.764m-12.9-6.506a2.912,2.912,0,0,0,.976-.21,3.141,3.141,0,0,0,.788-.858c.235-.341.694-.582.55-1.127a.536.536,0,0,1,.106-.408c.573-.708.266-1.515.238-2.275-.009-.227-.306-.523-.544-.633a.692.692,0,0,0-.625.267,13.1,13.1,0,0,0-.584,1.562c-.03.084,0,.211-.054.26-.526.488-.341,1.146-.432,1.737-.024.158,0,.406-.095.458-.482.283-.267.715-.325,1.228" transform="translate(274.72 24.071)" fill="#f4eee4"></path>
      <path id="Path_953" data-name="Path 953" d="M15.684,20.995a3.445,3.445,0,0,1,.525.791,6.371,6.371,0,0,1,.125,1.112c.029.282-.114.635.324.754.049.014.083.194.073.292-.055.561.12,1.114-.307,1.678-.253.334-.084.98-.121,1.485-.019.247.1.567-.288.662a.156.156,0,0,0-.076.131c.15.7-.38,1.195-.577,1.778a1.984,1.984,0,0,1-.738,1.2c-.123.075-.136.522-.038.717.121.242.412.4.627.593a1.568,1.568,0,0,0,1.042.569c.033,0,.064.217.094.324.314.15.815-.165.935.412.009.041.193.063.3.065.4.008.8.025,1.194,0a.9.9,0,0,0,.777-.295c.19-.218.8-.073,1.224-.073.012,0,.071.222.027.281a1.361,1.361,0,0,1-.468.483,6.339,6.339,0,0,1-1.425.442c-.55.087-1.12.046-1.679.086a1.981,1.981,0,0,1-1.759-.544c-.3-.386-.859-.232-1.055-.771-.118-.325-.57-.542-.9-.77a.607.607,0,0,0-.423.008c-.3.08-.6.182-.9.286s-.566.22-.851.322c-.1.034-.246.1-.294.056-.365-.31-.717-.635-1.06-.969-.414-.4-.813-.818-1.22-1.228a4.223,4.223,0,0,1-.515-.522c-.206-.3-.355-.635-.546-.945-.178-.29-.379-.565-.568-.848a8.192,8.192,0,0,0-.818-1.2c-.448-.462-.689-1.055-1.172-1.523s-.915-.369-1.439-.416c-.038.752-.739,1.288-.568,2.078-.729.535-.29,1.324-.434,1.986-.019.088-.011.227-.062.255-.52.281-.3.776-.379,1.19a4.171,4.171,0,0,1-.291.769c-.012.03-.063.047-.072.076a11.928,11.928,0,0,0-.437,1.572c-.131.9-.5,1.247-1.469,1.136C0,33.823,0,33.159,0,32.5c.011-1.012.01-2.026.059-3.036a5.722,5.722,0,0,1,.272-.87c.031-.138.008-.373-.081-.436-.266-.187-.212-.276-.022-.5a1.222,1.222,0,0,0,.22-.73c.026-1.936.019-3.872.045-5.808a2.238,2.238,0,0,1,.261-.9C.581,19.8.374,19.4.834,18.976c.077-.07.034-.277.036-.421.022-2.026.036-4.052.07-6.077a9.966,9.966,0,0,1,.232-1.2c.067-.51-.167-1.076.11-1.619.023-.046-.164-.2-.169-.2a5.449,5.449,0,0,0,.225-.99q.073-3.09.1-6.181c0-.7-.062-1.4-.1-2.13.221-.055.4-.115.593-.145a.638.638,0,0,1,.786.63c.021.452-.01.908.042,1.356a2.084,2.084,0,0,0,.286.763,1.551,1.551,0,0,1-.118,1.346c-.216.188-.264.308.022.487.094.059.12.426.1.432-.453.153-.305.541-.309.83C2.717,7.738,2.727,9.62,2.691,11.5c0,.267-.248.524-.275.8a1.56,1.56,0,0,0,.127.913c.136.221.192.255-.031.437a.839.839,0,0,0-.211.582c-.025,1.737-.019,3.474-.049,5.21a2.279,2.279,0,0,1-.246.632,1.357,1.357,0,0,0-.094.406q-.062,2.088-.11,4.176a.9.9,0,0,0,.029.322,3.689,3.689,0,0,0,.211.425c.083-.131.16-.265.25-.391a9.932,9.932,0,0,0,.7-.985A.849.849,0,0,1,4.1,23.617a2.869,2.869,0,0,1,1.385.766A11.711,11.711,0,0,0,6.667,25.43a.512.512,0,0,1,.155.248,2.142,2.142,0,0,0,.793,1.175,3.492,3.492,0,0,1,.554.991,2.378,2.378,0,0,0,.247.32c.051.062.116.113.16.179.369.557.733,1.116,1.1,1.673.086.129.228.244.258.384.071.329.307.4.571.512a2.388,2.388,0,0,1,.793.574c.282.315,1.112.32,1.308-.057.123-.235.285-.49-.162-.63-.155-.049-.286-.276-.362-.45-.223-.511-.761-.863-.751-1.49,0-.088,0-.244-.039-.255-.625-.181-.291-.709-.4-1.072-.075-.24-.2-.465-.288-.7a1.191,1.191,0,0,1-.118-.384c-.015-.578-.024-1.158-.008-1.736.007-.253-.148-.6.315-.676.05-.008.064-.255.093-.391.08-.376-.2-.86.372-1.1.09-.038.089-.374.072-.568-.046-.539.488-.7.668-1.082.252-.529.912-.37,1.259-.821.139-.181.832-.068,1.2.088a7.016,7.016,0,0,1,1.232.831m-.509,5.2c-.053-1.037.623-1.973-.125-2.814.247-.245.389-.444-.005-.722a3.578,3.578,0,0,1-.659-.849h-1c-.288.25-.584.379-.638.575-.185.677-.7,1.261-.534,2.05.051.239-.158.532-.212.7a8.1,8.1,0,0,1,.163.8c.06.611.1,1.224.149,1.835.009.1.048.283.09.288.43.052.286.383.325.625a.9.9,0,0,0,.06.31c.168.281.358.548.54.821l-.1.109.78.072c.2-.477.375-.9.556-1.329a.123.123,0,0,1,.086-.057c.377-.046.218-.306.241-.526.072-.672-.112-1.4.277-1.879" transform="translate(125.79 0)" fill="#f4eee4"></path>
      <path id="Path_954" data-name="Path 954" d="M21.368,12.1c-.111-.39-.664-.551-.536-1.069.14-.566-.168-1.19.349-1.737.2-.214.109-.73.111-1.108.006-.831-.016-1.663-.021-2.5,0-.678,0-1.356,0-1.912-.2-.239-.354-.41-.5-.587-.189-.235-.7.014-.919.119-.568.275-.154,1.058-.753,1.27-.062.022-.043.237-.087.353-.1.273-.22.541-.335.81-.013.031-.056.051-.066.083-.169.508-.318,1.023-.511,1.522-.1.248-.312.451-.4.7a5.733,5.733,0,0,1-.592,1.719c-.3.356-.16.937-.7,1.143-.124.048-.11.458-.217.642-.258.291-.528.573-.772.876-.23.285-.412.611-.655.883-.188.211-.7.1-.689-.15.029-.837-.674-1.525-.455-2.4a.643.643,0,0,0-.19-.468,1.675,1.675,0,0,0-.725.227,4.864,4.864,0,0,0-.677.618,1.828,1.828,0,0,0-.368.447c-.226.222-.738-.064-.81.487-.467-.03-1.056.108-1.374-.125A2.062,2.062,0,0,1,8.6,9.893a4.83,4.83,0,0,0-.008-1.03,1.215,1.215,0,0,0-.122-.386c-.092-.216-.2-.425-.3-.64a5.834,5.834,0,0,1-.329-.774c-.077-.272-.078-.566-.139-.844a1.92,1.92,0,0,0-.187-.4,2.711,2.711,0,0,1-.289.284c-.414.3-.4.781-.541,1.206-.1.3-.417.519-.642.77-.186.207-.505.386-.546.616-.132.738-.65,1.007-1.244,1.257a2.251,2.251,0,0,0-.6.42c-.911.821-1.992.411-3,.374C.44,10.744.082,10.28.067,10.01A18.825,18.825,0,0,1,.093,6.554C.136,6.216.452,5.8.557,5.372a2.524,2.524,0,0,1,.368-.7c.148-.232.323-.446.489-.665.147-.194.3-.382.449-.578a4.978,4.978,0,0,1,.45-.616c.353-.344.759-.634,1.1-.986.291-.3.534-.627,1.02-.592.044,0,.105-.235.15-.34.314-.139.789.132.9-.421.007-.037.209-.015.3-.059.2-.1.394-.217.591-.325A.451.451,0,0,1,6.561,0C7.36,0,8.16,0,8.9,0l.481,1.1c-.556.41-.332,1.094-.365,1.68C8.959,3.861,9,4.95,9.041,6.034a4.318,4.318,0,0,0,.289.971.482.482,0,0,0,.028.8c.141.132.064.483.111.729.141.733.294,1.464.425,2.11.955.446,1.494-.444,2.014-.377.439-.516.775-.905,1.106-1.3a6.774,6.774,0,0,0,.855-1.057c.268-.5.619-.281,1.061-.254.035.467.047.928.117,1.38.024.152.19.385.306.394a.859.859,0,0,0,.54-.224c.2-.169.329-.524.539-.571.426-.1.269-.383.335-.612a1.827,1.827,0,0,1,.225-.415c.05-.082.15-.148.167-.234a1.59,1.59,0,0,1,.346-.816A5.828,5.828,0,0,0,18.146,5a6.442,6.442,0,0,1,.7-1.595,6.6,6.6,0,0,0,.634-1.395c.021-.048.01-.149.029-.153.561-.109.343-.61.455-.928.777-.153.874.024,1.358.669.317.423.252,1.055.481,1.227.632.475.056,1.333.705,1.723.077.046.063.27.064.412,0,1.175.007,2.352-.014,3.527A1.759,1.759,0,0,1,22.354,9a1.688,1.688,0,0,0-.157.492c-.027.632-.023,1.266-.034,1.9-.013.714-.041.737-.794.709M3.336,9.05a1.99,1.99,0,0,0,.675-.213c.238-.179.351-.537.6-.692a1.86,1.86,0,0,0,.863-1.174.416.416,0,0,1,.112-.218,1.589,1.589,0,0,0,.762-1.107c0-.07.02-.188.055-.2.574-.164.289-.645.385-.988a1.967,1.967,0,0,1,.271-.472C7.1,3.92,7.2,3.862,7.2,3.8c.011-.67.007-1.341.007-2.2A6.649,6.649,0,0,1,6.1,2.126a2.92,2.92,0,0,0-1.674.912c-.19.23-.534.327-.758.538a6.893,6.893,0,0,0-.537.7c-.17.21-.371.394-.543.6-.279.337-.564.671-.814,1.028a3.252,3.252,0,0,0-.5,1.952c0,.081-.152.155-.17.245a2.081,2.081,0,0,0-.084.805c.039.18.286.314.493.523.543-.084,1.265.291,1.825-.386" transform="translate(236.702 26.849)" fill="#f4eee4"></path>
      <path id="Path_955" data-name="Path 955" d="M6.292,30.844c.367-.091.85.26,1.031-.352.107.049.3.086.306.148a6.556,6.556,0,0,1,.027.86c0,.4,0,.8-.014,1.194-.021.793-.024.793-.821.887-.058.479-.2.885-.841.845-.392-.024-.61-.143-.6-.559,0-.087-.01-.244-.044-.252-.624-.148-.372-.652-.373-1-.015-2.731,0-5.463.008-8.194a.5.5,0,0,1,.06-.3c.472-.53.47-.585.025-1.04-.06-.061-.009-.348.006-.348.449-.037.311-.392.316-.62.025-1.061.016-2.122.033-3.183a1.659,1.659,0,0,1,.119-.519,5.973,5.973,0,0,0,.336-1.1c-.537.072-1.1-.371-1.479.269a.1.1,0,0,1-.041.033A6.5,6.5,0,0,0,3,18.239c-.43.331-1.2.263-1.276,1.046-.007.082-.2.2-.315.21-.462.024-.926.01-1.383.01A1.232,1.232,0,0,1,.65,18.119c.287-.165.474-.5.752-.685a1.8,1.8,0,0,1,.582-.195c.274-.19.437-.318.615-.422.341-.2.689-.389,1.037-.578.205-.11.43-.319.622-.294.538.07.793-.375,1.087-.62a1.861,1.861,0,0,1,.539-.372.585.585,0,0,0,.323-.387c.06-.465.026-.941.085-1.406.113-.882.31-1.755.389-2.639.088-.987.067-1.983.128-2.974.026-.417-.185-.926.366-1.2.052-.026.034-.2.036-.312.012-.506,0-1.014.04-1.519.009-.131.163-.248.24-.378A.851.851,0,0,0,7.652,3.8c.021-.415-.007-.834.02-1.248.019-.286-.144-.618.315-.813.147-.062.143-.605.116-.921-.059-.71.452-1,1.148-.7a1.07,1.07,0,0,1,.365,1.662c-.033.04-.1.071-.1.113a17.68,17.68,0,0,0-.589,3.021c.009.28-.214.559-.261.85a14.078,14.078,0,0,0-.128,1.4c-.025.415-.017.832-.039,1.248-.014.268.093.587-.3.724-.066.023-.078.258-.081.4-.017.651-.011,1.3-.036,1.953-.013.318.118.7-.319.883-.048.02-.06.162-.061.249-.006.468,0,.936,0,1.484.472-.111,1.039.324,1.4-.366.044-.082.306-.038.463-.074.3-.07.707.08.848-.371.008-.025.054-.048.086-.055.732-.17,1.463-.343,2.2-.5.332-.072.747.134.948-.371.04-.1.437-.043.663-.088.415-.085.871.163,1.253-.344a.838.838,0,0,1,1.139.182c.208.235.582.316.476.74-.024.1-.083.266-.121.265-.693-.026-1.018.578-1.528.857a1.958,1.958,0,0,1-.825.134c-.356.017-.715-.032-1.069-.007-.22.016-.512-.078-.6.3-.02.083-.379.093-.584.123-.3.043-.654-.115-.806.34-.028.083-.36.06-.551.094-.434.077-.989-.22-1.248.4,0,.01-.033.01-.05.014L7.7,15.933l.058.084a3.236,3.236,0,0,0-.4.381.677.677,0,0,0-.126.371c-.023.8-.005,1.594-.055,2.387a4.014,4.014,0,0,1-.284.815,2.5,2.5,0,0,0-.11.618,28.071,28.071,0,0,1-.142,3.52,21.676,21.676,0,0,0-.341,3.1c-.022,1.189,0,2.377,0,3.638" transform="translate(107.297 2.284)" fill="#f4eee4"></path>
      <path id="Path_956" data-name="Path 956" d="M.05,8.7c0-.415-.018-.832.006-1.246.016-.279-.2-.663.322-.773.07-.015.053-.4.093-.608.072-.389-.189-.893.382-1.117.038-.015.055-.133.049-.2-.055-.6.358-.884.763-1.2a1.218,1.218,0,0,0,.355-.549c.177-.5.7-.8.778-1.375.024-.183.261-.336.4-.505A7.219,7.219,0,0,1,3.818.376c.243-.226.5-.477.9-.334C5.2.21,5.707.3,6.167.5a1.288,1.288,0,0,1,.54.58c.226.437.367.918.583,1.362s.493.88.729,1.327a1.244,1.244,0,0,1,.143.458c.029.341-.092.713.354.917.089.041.058.335.089.511.048.27-.134.637.334.737.056.012.081.258.088.4.024.469.028.939.051,1.408.006.121.014.3.087.348.28.172.371.327.081.57a.208.208,0,0,0-.033.2c.393.395.187.886.219,1.334.02.268.077.511-.252.739-.174.121-.14.6-.125.92a2.263,2.263,0,0,1-.779,1.64c-.219.244-.351.606-.613.763-.339.2-.492.663-1.01.645-.267-.01-.538.3-.816.321A9.955,9.955,0,0,1,4.206,15.6c-.175-.019-.329-.183-.506-.231a1.886,1.886,0,0,1-.958-.744,2.618,2.618,0,0,0-.5-.474c-.489-.35-.637-.944-.98-1.354-.271-.325-.205-.769-.391-.9C.474,11.631.6,11.168.39,10.96c-.534-.527-.248-1.153-.372-1.72A2.567,2.567,0,0,1,.013,8.7H.05M3.136,4.217c-.2.258-.29.477-.45.558-.435.222-.251.793-.5.969-.432.309-.3.707-.4,1.073a4.95,4.95,0,0,0-.251.85,6.1,6.1,0,0,0-.009,2.11c.11.371.182.749.278,1.126.145.568.356,1.12.54,1.679,0,.015.024.025.037.037.4.345.822.664,1.187,1.042a2.051,2.051,0,0,0,1.6.78c.451-.029.908.163,1.359-.344s1.054-.862,1.238-1.575c.022-.084.034-.234.072-.241.55-.1.283-.526.33-.817.076-.469-.446-.788-.248-1.364.148-.429-.09-.988-.144-1.491A5.629,5.629,0,0,0,7.525,6.6c-.344-.62-.128-1.36-.664-1.927-.32-.339-.354-.948-.528-1.431-.026-.072-.13-.112-.176-.181a1.321,1.321,0,0,1-.231-.422A5.3,5.3,0,0,1,5.875,1.9L4.813,1.331a11,11,0,0,1-.922,1.72c-.329.413-.785.715-.754,1.165" transform="translate(171.516 18.21)" fill="#f4eee4"></path>
      <path id="Path_957" data-name="Path 957" d="M5.118,15.82c-.4-.327-.707-.582-1.016-.839-.191-.158-.454-.283-.555-.487-.287-.577-.887-.93-1.019-1.645-.071-.387-.555-.682-.766-1.066a2.241,2.241,0,0,1-.081-.794c-.023-.229.1-.541-.317-.559-.04,0-.1-.094-.109-.152A21.067,21.067,0,0,0,.721,7.921a21.638,21.638,0,0,1-.478-3.5C.2,4.166,0,3.923,0,3.674a7,7,0,0,1,.207-.988c.046-.282.044-.571.065-.857C.305,1.365.332.9.376.437.415.02.764-.018,1.051.006c.092.008.215.35.222.543.023.686-.012,1.374,0,2.06.008.393-.147.84.315,1.126.065.041.042.237.047.361.045,1.243.035,2.492.155,3.727a7.972,7.972,0,0,0,.557,1.72c.044.129.119.248.161.378.127.387.042.829.423,1.158.146.126.072.484.147.722a2.3,2.3,0,0,0,.286.484c.036.057.106.105.114.164.111.821.773,1.188,1.291,1.71a1.134,1.134,0,0,0,1.066.367c.152-.018.287-.176.43-.267a.648.648,0,0,1,.211-.119c.779-.12,1.151-.747,1.606-1.272.2-.228.405-.448.611-.669.036-.038.112-.06.121-.1.14-.673.793-1.18.613-1.966a4.725,4.725,0,0,1-.01-.955l1.292-.1c0,.887.971,1.608.24,2.4a6.6,6.6,0,0,1,.254,1.059c.045.648.011,1.3.046,1.95.011.209.173.408.194.618a6.216,6.216,0,0,1,.008,1.093c-.018.217-.172.426-.176.64-.036,1.824-.032,3.65-.088,5.473-.012.383-.277.752-.331,1.141-.086.624-.092,1.258-.135,1.888-.014.216.038.49-.073.635-.212.278-.19.843-.8.763,0-1.292-.01-2.555.013-3.818,0-.158.18-.314.292-.495a3.774,3.774,0,0,1-.248-.692c-.024-.138.111-.3.141-.453.048-.253.175-.677.08-.739-.52-.34-.217-.72-.077-1.035a1.461,1.461,0,0,0-.009-1.457c-.13-.225-.33-.549.068-.851a.792.792,0,0,0,.08-.778c-.408-.456-.3-.975-.324-1.476-.028-.592-.006-1.186-.006-1.809h-.8a4.981,4.981,0,0,1-.311.514,5.621,5.621,0,0,1-3.63,2.171" transform="translate(208.758 20.409)" fill="#f4eee4"></path>
      <path id="Path_958" data-name="Path 958" d="M10.9,16.65a6.4,6.4,0,0,0-.062-.828,1.182,1.182,0,0,0-.242-.4c-.037-.052-.146-.085-.145-.125.008-.752-.639-1.328-.535-2.127a2.65,2.65,0,0,0-.286-.986c-.016-.051-.04-.1-.051-.152Q9.3,10.7,9.025,9.367c-.014-.07-.008-.194-.039-.2-.594-.189-.318-.7-.414-1.071a1.239,1.239,0,0,0-.342-.519c-.143-.325.088-.756-.41-1.013-.13-.067-.057-.506-.1-.771-.049-.325.111-.733-.364-.909-.064-.024-.043-.267-.069-.407-.061-.33.061-.737-.385-.912-.041-.016-.06-.126-.064-.193a1.369,1.369,0,0,0-.855-1.141c-.094-.052-.116-.234-.175-.364-.821-.119-.709-.019-1.334.673-.519.575-.337,1.38-.876,1.863-.4.356-.286.971-.528,1.247-.507.581-.258,1.2-.4,1.786-.053.214-.313.374-.373.588-.081.29-.035.613-.093.912a5.549,5.549,0,0,1-.248.638,2.257,2.257,0,0,0-.13.565c-.026.433.008.871-.043,1.3a3.2,3.2,0,0,1-.27.724,1.235,1.235,0,0,0-.119.335c-.029.482-.014.968-.062,1.447-.087.883-.37,1.083-1.33.937,0-.344,0-.7,0-1.054,0-.085.025-.237.06-.243.554-.1.362-.545.374-.86.027-.686-.008-1.374.014-2.06.009-.27-.126-.633.336-.741.067-.016.07-.325.091-.5C.94,8.92.8,8.43,1.225,7.939c.261-.3.074-.953.205-1.414a5.86,5.86,0,0,1,.6-1.15c.023-.043.1-.062.111-.1.2-.63.379-1.266.584-1.894a4.928,4.928,0,0,1,.283-.587,1.2,1.2,0,0,0,.139-.323c.041-.281-.082-.638.377-.694.026,0,.061-.092.06-.14-.009-.64.457-.873.881-1.24A1.655,1.655,0,0,1,5.67,0c.533-.009.815.389,1.136.711.178.178.3.517.49.559.578.126.245.909.8,1.018.037.008,0,.245.051.355a5.736,5.736,0,0,0,.286.5.941.941,0,0,1,.12.273c.052.292-.111.664.362.79.069.018.062.329.086.506.055.428-.06.9.39,1.218.094.067.062.305.1.462.074.336-.124.787.388.943.01,0,.014.032.018.049.169.677.344,1.352.5,2.03.057.24-.088.554.306.658.071.019.111.248.12.384.024.343,0,.688.035,1.03.028.3-.092.645.319.842.106.051.062.4.1.609.176.916.349,1.833.546,2.745.048.22.529.225.186.683s-.658.37-1.116.283" transform="translate(182.846 19.995)" fill="#f4eee4"></path>
      <path id="Path_959" data-name="Path 959" d="M5.093,28.2l.217-.248a5.372,5.372,0,0,1-.237-.881c-.042-.467.011-.944-.046-1.408-.039-.311-.228-.6-.3-.912a7.693,7.693,0,0,1-.115-.96c-.043-.436.054-.906-.382-1.235-.075-.056-.033-.27-.04-.411a6.559,6.559,0,0,0-.161-2.09,9.47,9.47,0,0,1-.4-2.555c-.04-.282.1-.648-.036-.85-.671-1.01-.267-2.138-.43-3.2a1.286,1.286,0,0,0-.106-.286,4.026,4.026,0,0,1-.267-.634c-.1-.455.186-1.019-.4-1.349-.061-.035-.027-.239-.034-.365a3.811,3.811,0,0,0-.4-2.249.241.241,0,0,1-.022-.105c-.189-1.377-.369-2.756-.576-4.13a7.194,7.194,0,0,0-.28-.715A2.426,2.426,0,0,1,.962,2.79C1.031,2.1.553,1.706.244,1.2A3.762,3.762,0,0,1,0,.027c.439.02.832-.2.936.357.424-.062.454.351.663.548.025.024.087.034.089.056.06.605.7.976.636,1.652a1.435,1.435,0,0,0,.3.76c-.105.209-.518.427.052.675.064.028.071.228.074.348.011.4-.011.8.017,1.194.019.263-.078.6.319.718.061.019.09.217.094.334.014.416-.014.835.024,1.247.024.256-.085.6.322.716.055.015.072.219.082.338.04.522.063,1.045.111,1.566.009.1.1.2.155.3a1.283,1.283,0,0,1,.2.423c.046.63.028,1.266.1,1.892a4.157,4.157,0,0,0,.319.857,1.4,1.4,0,0,1,.084.411c.015.452-.008.906.027,1.356.03.4-.133.854.32,1.168.1.072.093.338.1.516.015.6.006,1.193.024,1.79.008.277-.137.639.34.715.042.007.069.22.071.338.018.94.016,1.88.05,2.819.006.153.172.3.241.454a1.348,1.348,0,0,1,.15.477c.024.741,0,1.485.046,2.224a4.2,4.2,0,0,0,.259.85,5.529,5.529,0,0,1,.137.61c.19,1.121.328,2.253.587,3.358.088.377.482.679.721,1.026a2.811,2.811,0,0,1,.188.525A3.113,3.113,0,0,1,6.8,32.4a1.8,1.8,0,0,1-.453-.769q-.41-.957-.771-1.934a4.685,4.685,0,0,1-.084-.586c-.069-.3-.161-.6-.243-.9L5.093,28.2" transform="translate(199.082 0.549)" fill="#f4eee4"></path>
      <path id="Path_960" data-name="Path 960" d="M0,9.434l.819.69a5.283,5.283,0,0,0,.013.922,4.941,4.941,0,0,0,.312.852c.048.133.078.272.121.406.1.315-.137.794.432.9.039.007.037.2.068.3a1.617,1.617,0,0,0,.911,1.042,7.184,7.184,0,0,1,.955.685.873.873,0,0,0,.331.143c.279.052.578.053.66.413a7.326,7.326,0,0,1,.692-.333,1.411,1.411,0,0,1,.414-.029,5.011,5.011,0,0,0,.427-.507.464.464,0,0,0,.036-.321c-.481-.187-.292-.6-.324-.932s.005-.69-.039-1.029a1.906,1.906,0,0,0-.238-.538c-.023-.047-.1-.09-.1-.123.156-.745-.506-1.275-.517-1.983a1.144,1.144,0,0,0-.361-1.042c-.2-.163-.1-.682-.162-1.036-.065-.409.074-.879-.365-1.184-.061-.043-.053-.2-.053-.31,0-1.3,0-2.6.008-3.9A4.639,4.639,0,0,1,4.854.9a2.8,2.8,0,0,1,.534-.55A1.33,1.33,0,0,1,7.178.343,3.7,3.7,0,0,0,8,.858a.871.871,0,0,1,.606.692,2.894,2.894,0,0,0,.586,1.018,1.35,1.35,0,0,1-.477,1.976c-.3.152-.5.5-.833.849l-.656.046c.033-.369-.112-.683.35-.911.267-.132.355-.677.616-.767.635-.218.313-.646.381-1.049-.654.05-.966-.372-1.295-.807-.412-.543-1.027-.4-1.5.126a3.668,3.668,0,0,0-.76,3.186A6.63,6.63,0,0,0,5.5,7.925c.447.667-.016,1.517.687,2.012.107.076.052.376.081.571.048.335-.091.725.344.948.1.05.071.334.107.509.052.254-.035.5.309.719.177.112.031.733-.033,1.124a3.833,3.833,0,0,1,.116,2.325,3.6,3.6,0,0,1-.9.654,2.155,2.155,0,0,1-.713.3c-.353.063-.741.194-1.02-.22-.06-.088-.261-.112-.4-.114A1.641,1.641,0,0,1,2.6,15.935c-.028-.047-.121-.065-.187-.078a1.546,1.546,0,0,1-1.162-1.031A4.537,4.537,0,0,0,.605,14a.827.827,0,0,1-.163-.341c-.069-.4.123-.888-.414-1.119C0,12.525,0,12.435,0,12.382c0-.919,0-1.839,0-2.948" transform="translate(261.178 25.426)" fill="#f4eee4"></path>
      <path id="Path_961" data-name="Path 961" d="M.054,14.654c-.011-.144-.03-.375-.054-.678.541-.026,1.071-.3,1.466.328.057.091.3.062.461.091.1.019.287.022.3.065.123.528.55.321.869.386.353.071.836-.239,1.033.374.024.073.547.052.8-.033a3.654,3.654,0,0,0,.763-.476l.193.092c0-.657,0-1.313-.005-1.97,0-.081-.044-.216-.1-.233-.479-.149-.318-.564-.4-.885a3.119,3.119,0,0,0-.262-.549,2.414,2.414,0,0,1-.107-.237A6.007,6.007,0,0,0,4.6,9.638,7.881,7.881,0,0,1,4.064,7.4c-.073-.321-.182-.635-.3-1.046.152-.134.5-.38-.08-.645-.058-.026-.043-.238-.043-.363,0-.76,0-1.52.007-2.28,0-.09-.019-.242.02-.262.558-.266.272-.818.439-1.2A3.624,3.624,0,0,1,4.773.816c.106-.122.2-.254.216-.277C5.5.347,5.906.186,6.321.038,6.416,0,6.6-.017,6.62.017c.313.659.932.215,1.374.419a10.8,10.8,0,0,0,.783.8,1.232,1.232,0,0,1,.1,1.37c-.1.1-.162.273-.28.325s-.415.063-.44.006a1.248,1.248,0,0,0-1.1-.883c-.187-.014-.355-.236-.545-.264a1.148,1.148,0,0,0-1.08.888c-.071.332-.326.635-.351.963a4.079,4.079,0,0,0,.075,1.87,5.238,5.238,0,0,1,.287,1.551c.058.4-.157.875.339,1.147.031.017.022.1.038.154.171.613.176,1.373.555,1.8.482.542.264,1.116.448,1.643.215.616.531,1.2.738,1.814a2.615,2.615,0,0,1,.031.912c-.011.28.109.572-.3.771-.244.118-.29.619-.534.761-.361.211-.551.706-1.124.615S4.452,16.73,3.9,16.6a3.771,3.771,0,0,1-1.746-.736,4.823,4.823,0,0,0-.832-.42c-.41-.236-.806-.5-1.27-.79" transform="translate(78.314 10.581)" fill="#f4eee4"></path>
      <path id="Path_962" data-name="Path 962" d="M7.077,0c.277.329.513.6.739.881.116.144.3.3.309.453a5,5,0,0,1-.074,2.129c-.225.485-.177,1.138-.718,1.529-.143.1-.25.455-.47.632a1.208,1.208,0,0,1-.51.292c0,.412-.01.824,0,1.236.008.216-.058.49.307.526.058.006.134.192.138.3.019.47.291.6.712.608a.962.962,0,0,1,.743.283c.211.2.71.128,1.082.128.26,0,.619.182.712-.321.016-.086.456-.092.715-.138a1.3,1.3,0,0,1,1.4-.766c.02.216.041.444.06.647l-1.351.923c-.043.029-.092.09-.126.082-.526-.124-.848.31-1.128.562-.384.346-.811.308-1.217.442a4.465,4.465,0,0,0-.447.2,2.5,2.5,0,0,0-.517-.223,2.547,2.547,0,0,1-1.466-1.04,5.334,5.334,0,0,0-.886-.818,1.357,1.357,0,0,1-.5-.624c-.09-.352-.262-.306-.514-.271s-.548,0-.809.05a2.717,2.717,0,0,0-.547.279,1.045,1.045,0,0,1-.372.132c-.542.026-1.084.027-1.626.046C.268,8.172,0,7.974,0,7.506c0-.1.088-.21.135-.315.331.188.385-.6.808-.219a.851.851,0,0,0,.628.1,6.147,6.147,0,0,0,1.078-.313,4.5,4.5,0,0,0,.535-.32.939.939,0,0,1,.334-.116c.764-.082,1.021-.367,1.026-1.155a6.06,6.06,0,0,1,.014-.921,4.153,4.153,0,0,1,.277-.759c.038-.1.122-.214.1-.3-.17-.684.39-1.117.587-1.669A4.928,4.928,0,0,1,6.427.1c.114-.137.466-.074.65-.1" transform="translate(37.093 16.398)" fill="#f4eee4"></path>
      <path id="Path_963" data-name="Path 963" d="M8.26,18.425c-.8.258-1.073-.261-1.426-.606-.177-.173-.306-.4-.492-.559-.4-.345-.81-.677-1.234-.989a15.472,15.472,0,0,1-1.376-.962c-.547-.505-1-1.11-1.525-1.642-.362-.366-.805-.653-1.158-1.026a3.794,3.794,0,0,1-.574-.906,3.263,3.263,0,0,1-.456-1.127A17.105,17.105,0,0,1,.084,8.457a.672.672,0,0,1,.125-.269c.1-.162.2-.319.3-.477s.2-.313.3-.469c.035-.055.113-.109.11-.159-.072-.952.645-1.74.509-2.729a11.8,11.8,0,0,1-.009-2.436c.039-.531-.4-.7-.62-1.017C.642.681.342.567.121.387A.25.25,0,0,1,.086.148C.119.089.23.071.309.041c.519-.2.626.386.972.537.243.106.323.554.566.7.468.277.266.809.507,1.11.68.847.077,1.824.357,2.7a.249.249,0,0,1-.02.21c-.505.48-.3,1.153-.49,1.714a11.745,11.745,0,0,1-.631,1.281,3.273,3.273,0,0,0-.214.6c-.065.248.107.556-.327.687-.24.072-.11,1.072.117,1.246a.69.69,0,0,1,.193.268,2.427,2.427,0,0,0,.843,1.161c.245.164.372.5.588.719s.491.377.714.59c.384.369.748.76,1.122,1.139a.864.864,0,0,0,.227.188,6.287,6.287,0,0,1,1.091.859,12.6,12.6,0,0,1,1.2.985c.247.294.61.358.813.566.237.241.221.729.319,1.129" transform="translate(317.694 31.326)" fill="#f4eee4"></path>
      <path id="Path_964" data-name="Path 964" d="M1.234,12.193c-.179,0-.651.057-.669-.01-.107-.391-.593-.511-.564-1.028C.074,9.9.018,8.629.045,7.366c0-.213.191-.416.25-.635a.487.487,0,0,0-.05-.4.638.638,0,0,1-.039-.873A.819.819,0,0,0,.441,5.01c.044-1.189.033-2.382.1-3.569A9.024,9.024,0,0,1,.851,0h.976c0,.6-.026,1.191.009,1.778.021.343-.226.822.373.969.044.011.051.231.051.353,0,.578,0,1.157-.036,1.733A2.367,2.367,0,0,1,2,5.377a1.938,1.938,0,0,0-.155.589c-.014,1.152,0,2.3-.009,3.457a8.828,8.828,0,0,1-.044,1.565,5.56,5.56,0,0,1-.557,1.205" transform="translate(71.934 14.137)" fill="#f4eee4"></path>
      <path id="Path_965" data-name="Path 965" d="M.532,0h.6a2.777,2.777,0,0,1,.489.448,1.344,1.344,0,0,1,.229.617c.029.7,0,1.4.023,2.106a2.75,2.75,0,0,0,.176.631L1.233,6.69.044,6.75c.068-.384-.3-.822.326-.989.036-.01.06-.125.062-.193C.459,4.812.5,4.054.487,3.3c0-.2-.21-.4-.31-.6a.962.962,0,0,1-.127-.367c-.014-.378,0-.757.007-1.135,0-.088.009-.246.038-.252C.642.836.407.362.532,0" transform="translate(74.189 2.844)" fill="#f4eee4"></path>
      <path id="Path_966" data-name="Path 966" d="M1.451.021c.212.2.34.317.464.437.057.056.148.116.152.179A.222.222,0,0,1,1.914.8C1.284.809.654.8.024.8L0,.621C.128.588.258.561.384.521.53.475.789.433.8.362c.071-.539.462-.306.653-.341" transform="translate(315.1 30.438)" fill="#f4eee4"></path>
      <path id="Path_967" data-name="Path 967" d="M1.219.956C.786.92.4.89.007.841A1.9,1.9,0,0,1,0,.547C.4.594.271-.228.877.062c.388.186.355.429.342.894" transform="translate(252.626 9.093)" fill="#f4eee4"></path>
    </g>
  </g>
</svg>
